<svg width="400" height="600" xmlns="http://www.w3.org/2000/svg" viewBox="0 0 500 500">
    <defs>
        <style>
            .cls-1{fill:#fff;}.cls-1,.cls-3{stroke:#26A9E0;stroke-miterlimit:10;stroke-width:3px;}.cls-2{fill:#26A9E0;}.cls-3{fill:none;}
        </style>
    </defs>
    <rect class="cls-1" x="125.4" y="18.92" width="288.74" height="418.78"/>
    <rect class="cls-1" x="118.29" y="26.07" width="288.74" height="418.78"/>
    <rect class="cls-1" x="110.96" y="33.23" width="288.74" height="418.78"/>
    <rect class="cls-1" x="103.94" y="40.34" width="288.74" height="418.78"/>
    <rect class="cls-1" x="96.66" y="47.89" width="288.74" height="418.78"/>
    <line class="cls-1" x1="175.29" y1="157.46" x2="306.77" y2="157.46"/>
    <line class="cls-1" x1="175.29" y1="174.5" x2="306.77" y2="174.5"/>
    <line class="cls-1" x1="175.29" y1="189.11" x2="306.77" y2="189.11"/>
    <line class="cls-1" x1="189.9" y1="206.15" x2="289.73" y2="206.15"/>
    <line class="cls-1" x1="215.63" y1="441.45" x2="264.33" y2="441.45"/>
    <rect class="cls-2" x="98.95" y="42.9" width="4.99" height="4.99"/>
    <rect class="cls-2" x="105.97" y="35.35" width="4.99" height="4.99"/>
    <rect class="cls-2" x="113.3" y="28.24" width="4.99" height="4.99"/>
    <rect class="cls-2" x="120.41" y="21.09" width="4.99" height="4.99"/>
    <line class="cls-3" x1="107.06" y1="47.89" x2="107.06" y2="466.67"/>
</svg>